<mxfile host="app.diagrams.net" agent="Mozilla/5.0 (Windows NT 10.0; Win64; x64) AppleWebKit/537.36 (KHTML, like Gecko) Chrome/136.0.0.0 Safari/537.36 Edg/136.0.0.0" version="26.2.13">
  <diagram name="第 1 页" id="cu7FL5aJr_y2CsQ8u70n">
    <mxGraphModel dx="1177" dy="655" grid="0" gridSize="10" guides="1" tooltips="1" connect="1" arrows="1" fold="1" page="1" pageScale="1" pageWidth="827" pageHeight="1169" math="0" shadow="0">
      <root>
        <mxCell id="0" />
        <mxCell id="1" parent="0" />
        <mxCell id="wpeiW6pVm9_-qQoVgWK0-2" value="/home/data/giraffe" style="rounded=1;whiteSpace=wrap;html=1;" vertex="1" parent="1">
          <mxGeometry x="292" y="91" width="150" height="28" as="geometry" />
        </mxCell>
        <mxCell id="wpeiW6pVm9_-qQoVgWK0-4" value="Dev" style="rounded=0;whiteSpace=wrap;html=1;" vertex="1" parent="1">
          <mxGeometry x="307.5" y="149" width="119" height="23" as="geometry" />
        </mxCell>
        <mxCell id="wpeiW6pVm9_-qQoVgWK0-6" value="Dev" style="rounded=0;whiteSpace=wrap;html=1;" vertex="1" parent="1">
          <mxGeometry x="15" y="149" width="119" height="23" as="geometry" />
        </mxCell>
        <mxCell id="wpeiW6pVm9_-qQoVgWK0-7" value="Dev" style="rounded=0;whiteSpace=wrap;html=1;" vertex="1" parent="1">
          <mxGeometry x="643" y="149" width="119" height="23" as="geometry" />
        </mxCell>
      </root>
    </mxGraphModel>
  </diagram>
</mxfile>
